 <svg  version="1.0" xmlns="http://www.w3.org/2000/svg"  width="300.000000pt" height="90.000000pt" viewBox="0 0 300.000000 90.000000"  preserveAspectRatio="xMidYMid meet">  <g transform="translate(0.000000,90.000000) scale(0.100000,-0.100000)" fill="#474747" stroke="none"> <path d="M164 766 c-64 -28 -72 -54 -76 -235 -3 -144 -5 -164 -21 -176 -18 -13 -18 -14 -1 -23 15 -8 19 -28 24 -104 9 -146 36 -170 198 -176 122 -5 179 11 214 61 18 25 23 48 26 121 3 63 8 94 18 102 12 10 12 13 -1 24 -12 10 -15 40 -15 159 0 165 -10 199 -69 238 -31 21 -46 23 -150 23 -75 -1 -127 -6 -147 -14z m280 -47 c15 -12 32 -33 37 -46 5 -14 10 -129 10 -257 2 -318 0 -321 -186 -321 -191 0 -193 4 -183 435 4 198 14 208 189 209 94 1 109 -1 133 -20z"/> <path d="M225 645 c-25 -24 -25 -25 -25 -229 l0 -204 31 -26 c51 -43 157 -28 174 24 4 11 7 109 7 218 l0 197 -27 22 c-39 34 -126 33 -160 -2z m150 -230 l0 -210 -65 0 -65 0 -3 213 -2 213 67 -3 68 -3 0 -210z"/> <path d="M679 758 c-59 -40 -69 -74 -69 -233 0 -155 10 -190 63 -229 23 -17 47 -22 120 -24 112 -5 138 -19 101 -57 -14 -13 -39 -16 -148 -14 l-131 1 0 -73 0 -74 170 0 c144 0 175 3 202 18 51 27 65 66 64 169 -2 142 -36 178 -171 178 -106 0 -110 4 -110 104 0 57 4 87 13 94 8 7 68 13 143 14 l129 3 0 70 0 70 -171 3 c-163 2 -172 2 -205 -20z m336 -38 c13 -41 -10 -50 -122 -50 -102 0 -105 -1 -134 -29 -30 -30 -32 -39 -30 -131 2 -93 44 -130 149 -130 112 0 146 -40 137 -162 -8 -111 -37 -128 -218 -128 -131 0 -153 7 -145 47 3 16 18 19 121 23 115 5 120 6 143 33 31 36 30 58 -2 88 -22 21 -38 25 -115 29 -80 5 -92 9 -117 33 l-27 27 0 154 c0 213 1 214 217 215 129 1 137 0 143 -19z"/> <path d="M1150 570 c0 -186 -2 -211 -16 -217 -15 -6 -15 -7 -1 -18 13 -10 17 -36 19 -146 l3 -134 75 0 75 0 1 105 2 105 72 3 72 3 -3 -108 -3 -108 75 0 74 0 3 130 c2 102 6 133 19 147 14 16 14 18 -1 24 -14 5 -16 31 -16 215 l0 210 -76 -3 -76 -3 1 -178 2 -178 -72 3 -71 3 1 178 2 177 -81 0 -80 0 0 -210z m114 153 c3 -10 5 -65 5 -123 -1 -166 -1 -169 26 -195 20 -21 34 -25 83 -25 50 0 62 4 83 26 23 24 24 34 29 177 l5 152 26 3 c17 2 29 -3 33 -13 11 -30 8 -592 -3 -614 -15 -27 -51 -23 -63 9 -5 13 -7 51 -5 83 4 54 2 59 -25 82 -39 33 -122 35 -162 4 -24 -19 -26 -26 -26 -98 0 -75 -9 -101 -36 -101 -33 0 -44 30 -44 128 -1 53 -1 111 -1 127 -2 167 2 365 7 379 9 22 61 22 68 -1z"/> <path d="M1710 578 c0 -166 -3 -204 -15 -218 -14 -15 -14 -18 0 -30 12 -10 15 -39 15 -146 l0 -134 75 0 75 0 0 128 c0 96 4 133 15 149 13 18 13 22 0 33 -12 10 -15 48 -15 216 l0 204 -75 0 -75 0 0 -202z m112 -33 c4 -104 7 -194 7 -200 0 -5 -3 -64 -7 -130 l-7 -120 -30 0 -30 0 -6 138 c-4 77 -6 146 -4 155 2 10 4 93 4 185 l1 168 33 -3 32 -3 7 -190z"/> <path d="M1970 576 c0 -170 -2 -206 -15 -216 -14 -11 -14 -15 -1 -29 12 -13 16 -49 18 -146 l3 -130 219 0 220 0 -2 70 c0 39 -1 72 -2 75 0 3 -64 5 -142 5 l-143 0 -3 57 c-2 47 0 59 17 70 19 14 19 14 0 26 -18 11 -19 25 -19 217 l0 205 -75 0 -75 0 0 -204z m112 -31 c9 -235 9 -222 4 -270 -4 -40 13 -87 36 -102 7 -4 65 -10 128 -13 l115 -5 0 -30 0 -30 -171 -3 c-157 -2 -172 -1 -179 15 -8 22 -8 611 1 624 3 6 18 9 32 7 l27 -3 7 -190z"/> <path d="M2581 762 c-69 -34 -76 -55 -79 -230 -3 -129 -6 -160 -20 -175 -15 -17 -15 -19 1 -28 15 -9 17 -27 17 -145 l0 -135 77 3 77 3 -3 108 -3 107 71 0 71 0 0 -110 0 -111 76 3 76 3 1 133 c2 115 4 135 19 143 16 9 16 11 -2 29 -18 18 -20 34 -20 170 0 173 -8 198 -70 230 -54 27 -237 29 -289 2z m264 -36 c18 -8 38 -23 43 -33 17 -32 30 -495 16 -566 -4 -18 -14 -29 -31 -33 -35 -9 -43 8 -43 94 0 64 -3 76 -25 97 -34 35 -121 36 -160 2 -24 -20 -27 -30 -29 -100 -3 -84 -11 -100 -47 -95 -23 3 -24 6 -29 123 -3 66 -3 198 0 293 l5 174 33 29 c31 28 36 29 132 29 64 0 113 -5 135 -14z"/> <path d="M2644 646 c-27 -22 -28 -27 -28 -119 0 -88 2 -99 24 -122 20 -21 33 -25 80 -25 43 0 64 5 84 21 25 20 26 24 26 120 0 93 -2 102 -25 124 -34 35 -121 36 -161 1z m146 -121 l0 -105 -70 0 -70 0 0 98 c0 54 3 102 7 105 3 4 35 7 70 7 l63 0 0 -105z"/> </g> </svg> 